<svg width="116" height="24" viewBox="0 0 116 24" fill="none" xmlns="http://www.w3.org/2000/svg">
<g style="mix-blend-mode:multiply" clip-path="url(#clip0_2533_13418)">
<path d="M50.2703 13.3785V18.0812H47.7568V13.419L42.6892 4.88525H45.2838L49.1352 11.2704L53.0068 4.88525H55.4189L50.2703 13.3785Z" fill="#15161A"/>
<path d="M57.4258 17.4725C56.6219 17.0694 55.958 16.4337 55.5204 15.6482C55.0518 14.8428 54.8134 13.9243 54.8312 12.9928C54.813 12.0676 55.0515 11.1554 55.5204 10.3576C55.9693 9.5809 56.6302 8.94811 57.4258 8.53331C58.2746 8.10561 59.2118 7.88281 60.1622 7.88281C61.1127 7.88281 62.0499 8.10561 62.8987 8.53331C63.6898 8.95433 64.3491 9.58565 64.8041 10.3576C65.273 11.1554 65.5115 12.0676 65.4933 12.9928C65.5111 13.9243 65.2727 14.8428 64.8041 15.6482C64.3607 16.4292 63.6983 17.0634 62.8987 17.4725C62.0499 17.9002 61.1127 18.123 60.1622 18.123C59.2118 18.123 58.2746 17.9002 57.4258 17.4725ZM62.2906 15.263C62.5787 14.9619 62.8027 14.6054 62.949 14.2152C63.0953 13.825 63.161 13.4091 63.142 12.9928C63.1587 12.5767 63.0919 12.1615 62.9457 11.7716C62.7995 11.3817 62.5768 11.025 62.2906 10.7225C62.0047 10.4606 61.6687 10.2591 61.303 10.1302C60.9373 10.0013 60.5492 9.9477 60.1622 9.9725C59.7846 9.97131 59.4105 10.0461 59.0623 10.1923C58.714 10.3386 58.3988 10.5533 58.1352 10.8239C57.8491 11.1264 57.6263 11.4831 57.4801 11.873C57.3339 12.2628 57.2672 12.6781 57.2839 13.0941C57.2649 13.5104 57.3305 13.9263 57.4768 14.3165C57.6232 14.7067 57.8471 15.0632 58.1352 15.3644C58.3978 15.6377 58.7124 15.8556 59.0605 16.0053C59.4087 16.155 59.7833 16.2334 60.1622 16.236C60.5652 16.2307 60.9625 16.1414 61.329 15.9739C61.6955 15.8063 62.023 15.5642 62.2906 15.263Z" fill="#15161A"/>
<path d="M77.4325 7.9458V18.0809H75.2028V16.8039C74.8162 17.2537 74.3305 17.6076 73.7839 17.8377C73.2377 18.0295 72.6592 18.1122 72.0812 18.0809C71.5065 18.1142 70.9309 18.0328 70.388 17.8414C69.8451 17.65 69.3457 17.3524 68.919 16.9661C68.5085 16.5251 68.1939 16.0038 67.995 15.4351C67.7961 14.8664 67.7173 14.2627 67.7636 13.662V7.9458H70.0541V13.358C69.9941 14.0861 70.2113 14.8101 70.6622 15.385C70.8841 15.6143 71.153 15.7928 71.4504 15.9083C71.7479 16.0237 72.0668 16.0734 72.3852 16.0539C72.7599 16.074 73.1346 16.0139 73.4841 15.8776C73.8337 15.7413 74.1501 15.5319 74.4123 15.2634C74.9381 14.6444 75.2001 13.8438 75.142 13.0336V7.9458H77.4325Z" fill="#15161A"/>
<path d="M89.3108 18.0816L86.6351 14.2505H83.1689V18.0816H80.7162V4.88562H86.1283C87.1443 4.85815 88.1541 5.05181 89.0878 5.45319C89.913 5.76412 90.6213 6.32367 91.1148 7.05454C91.5722 7.80432 91.8044 8.66976 91.7838 9.54778C91.8053 10.4506 91.5584 11.3395 91.0743 12.1018C90.5767 12.8243 89.8691 13.3762 89.0473 13.6829L91.9256 18.0816H89.3108ZM88.4189 7.70319C87.7159 7.209 86.8638 6.97271 86.0067 7.03427H83.1689V12.264H86.0067C86.8664 12.3214 87.7193 12.0777 88.4189 11.5748C88.7102 11.3287 88.9378 11.0159 89.0825 10.663C89.2272 10.3101 89.2846 9.92758 89.25 9.54778C89.2748 9.18382 89.2123 8.81918 89.0678 8.48423C88.9232 8.14928 88.7008 7.85371 88.4189 7.62211V7.70319Z" fill="#15161A"/>
<path d="M103.561 13.7429H95.7163C95.8304 14.4485 96.2159 15.0814 96.7906 15.5064C97.4265 15.9452 98.1876 16.1657 98.9595 16.1348C99.462 16.1537 99.9629 16.068 100.431 15.883C100.898 15.6981 101.322 15.418 101.676 15.0605L102.933 16.4996C102.481 17.0471 101.894 17.4664 101.23 17.7159C99.5231 18.3303 97.6424 18.2428 96.0001 17.4726C95.159 17.0781 94.4537 16.4433 93.973 15.6483C93.5277 14.8377 93.2942 13.9279 93.2942 13.003C93.2942 12.0782 93.5277 11.1683 93.973 10.3578C94.4098 9.59262 95.0477 8.9617 95.8176 8.53343C96.6647 8.10709 97.6067 7.90472 98.5541 7.94559C99.4619 7.92152 100.359 8.1458 101.149 8.59424C101.91 9.01081 102.536 9.63688 102.953 10.3983C103.394 11.2346 103.617 12.1689 103.601 13.1145C103.602 13.3246 103.588 13.5345 103.561 13.7429ZM96.6487 10.4186C96.1257 10.8698 95.7867 11.4973 95.696 12.1821H101.372C101.291 11.5092 100.966 10.8891 100.46 10.4388C99.9371 9.97194 99.2544 9.72501 98.5541 9.74965C97.8579 9.72759 97.1784 9.96612 96.6487 10.4186Z" fill="#15161A"/>
<path d="M115.784 7.94594V16.4392C115.88 17.1656 115.806 17.9046 115.568 18.5975C115.329 19.2904 114.933 19.9183 114.41 20.4316C113.887 20.9448 113.251 21.3293 112.554 21.5546C111.857 21.7799 111.116 21.8399 110.392 21.7297C109.467 21.7363 108.546 21.6135 107.655 21.3649C106.876 21.1593 106.146 20.801 105.507 20.3108L106.561 18.5473C107.057 18.9372 107.62 19.2327 108.223 19.4189C108.879 19.6267 109.562 19.736 110.25 19.7432C111.126 19.8087 111.995 19.5409 112.682 18.9932C112.955 18.6814 113.162 18.3179 113.291 17.9243C113.42 17.5308 113.468 17.1153 113.432 16.7027V16.1757C113.038 16.6251 112.536 16.9669 111.973 17.1689C111.372 17.4017 110.732 17.5186 110.088 17.5135C109.193 17.5268 108.308 17.3179 107.513 16.9054C106.755 16.5148 106.122 15.9174 105.689 15.1824C105.25 14.4138 105.019 13.544 105.019 12.6588C105.019 11.7736 105.25 10.9037 105.689 10.1351C106.13 9.41101 106.761 8.82197 107.513 8.43242C108.322 8.071 109.203 7.90436 110.088 7.94594C110.779 7.93171 111.467 8.04864 112.115 8.29053C112.7 8.52154 113.216 8.89834 113.615 9.38513V7.94594H115.784ZM112.622 14.777C112.895 14.5156 113.112 14.2008 113.258 13.852C113.405 13.5033 113.478 13.1282 113.473 12.75C113.485 12.3707 113.416 11.9933 113.269 11.6434C113.122 11.2936 112.901 10.9796 112.622 10.723C112.022 10.203 111.245 9.93434 110.453 9.97296C109.641 9.93692 108.848 10.2208 108.243 10.7635C107.964 11.0202 107.743 11.3341 107.596 11.684C107.449 12.0338 107.379 12.4113 107.392 12.7905C107.387 13.1687 107.46 13.5439 107.607 13.8926C107.753 14.2413 107.97 14.5562 108.243 14.8176C108.848 15.3603 109.641 15.6441 110.453 15.6081C111.256 15.6246 112.035 15.3264 112.622 14.777Z" fill="#15161A"/>
<path d="M34.9566 10.1225L25.9101 1.05584C25.3742 0.524318 24.65 0.226074 23.8953 0.226074C23.1405 0.226074 22.4163 0.524318 21.8805 1.05584L17.9516 5.08545L13.922 1.15658C13.3861 0.625058 12.6619 0.326814 11.9072 0.326814C11.1524 0.326814 10.4282 0.625058 9.89236 1.15658L0.86602 10.1225C0.334498 10.6583 0.0362549 11.3825 0.0362549 12.1373C0.0362549 12.892 0.334498 13.6162 0.86602 14.1521L9.91251 23.1986C10.4484 23.7301 11.1726 24.0283 11.9273 24.0283C12.6821 24.0283 13.4063 23.7301 13.9421 23.1986L17.9717 19.2697L21.9006 23.1986C22.4365 23.7301 23.1607 24.0283 23.9154 24.0283C24.6702 24.0283 25.3944 23.7301 25.9302 23.1986L34.9566 14.1521C35.4881 13.6162 35.7863 12.892 35.7863 12.1373C35.7863 11.3825 35.4881 10.6583 34.9566 10.1225Z" fill="url(#paint0_linear_2533_13418)"/>
<path opacity="0.5" d="M12.795 14.1808L21.8417 23.2276C22.9669 24.3528 24.7912 24.3528 25.9163 23.2276L34.9631 14.1808C36.0882 13.0557 36.0882 11.2314 34.9631 10.1063L25.9163 1.05951C24.7912 -0.0656597 22.9669 -0.0656597 21.8417 1.05951L12.795 10.1063C11.6698 11.2314 11.6698 13.0557 12.795 14.1808Z" fill="#00E8FC"/>
<path d="M34.9565 10.1224L25.91 1.0558C25.5912 0.733469 25.1999 0.49212 24.7687 0.351915C24.3376 0.21171 23.8792 0.176721 23.4318 0.249873C24.0254 0.352438 24.5736 0.633582 25.0033 1.0558L34.0498 10.1224C34.5813 10.6583 34.8796 11.3825 34.8796 12.1372C34.8796 12.892 34.5813 13.6162 34.0498 14.152L25.0033 23.2187C24.5736 23.6409 24.0254 23.922 23.4318 24.0246C23.8792 24.0978 24.3376 24.0628 24.7687 23.9226C25.1999 23.7824 25.5912 23.541 25.91 23.2187L34.9565 14.152C35.488 13.6162 35.7862 12.892 35.7862 12.1372C35.7862 11.3825 35.488 10.6583 34.9565 10.1224Z" fill="#00E8FC"/>
<path opacity="0.5" d="M0.865909 14.1586L9.91265 23.2054C11.0378 24.3305 12.8621 24.3305 13.9872 23.2054L23.034 14.1586C24.1592 13.0335 24.1592 11.2092 23.034 10.084L13.9872 1.03729C12.8621 -0.0878751 11.0378 -0.0878765 9.91265 1.03729L0.865909 10.084C-0.25926 11.2092 -0.25926 13.0335 0.865909 14.1586Z" fill="#F6028F"/>
</g>
<defs>
<linearGradient id="paint0_linear_2533_13418" x1="0.0198006" y1="12.1373" x2="35.8028" y2="12.1373" gradientUnits="userSpaceOnUse">
<stop stop-color="#A40B9E"/>
<stop offset="0.12" stop-color="#9C11A2"/>
<stop offset="0.31" stop-color="#8420AC"/>
<stop offset="0.54" stop-color="#5E3ABD"/>
<stop offset="0.81" stop-color="#2A5DD4"/>
<stop offset="1" stop-color="#007AE7"/>
</linearGradient>
<clipPath id="clip0_2533_13418">
<rect width="115.784" height="24" fill="white"/>
</clipPath>
</defs>
</svg>
