<svg width="32" height="32" viewBox="0 0 32 32" fill="none" xmlns="http://www.w3.org/2000/svg">
<path fill-rule="evenodd" clip-rule="evenodd" d="M7.51478 21.8639C6.92899 22.4497 6.92899 23.3994 7.51478 23.9852C8.10057 24.571 9.05031 24.571 9.6361 23.9852L16.0001 17.6213L22.364 23.9852C22.9498 24.571 23.8996 24.571 24.4854 23.9852C25.0711 23.3995 25.0711 22.4497 24.4854 21.8639L18.1214 15.4999L24.4853 9.13598C25.0711 8.55019 25.0711 7.60044 24.4853 7.01466C23.8996 6.42887 22.9498 6.42887 22.364 7.01466L16.0001 13.3786L9.63612 7.01467C9.05033 6.42889 8.10058 6.42889 7.5148 7.01467C6.92901 7.60046 6.92901 8.55021 7.5148 9.136L13.8787 15.4999L7.51478 21.8639Z" fill="#1D68F9"/>
</svg>
